<svg xmlns="http://www.w3.org/2000/svg" xmlns:xlink="http://www.w3.org/1999/xlink" viewBox="0 0 915.4 295.92">
  <defs>
    <style>
      .cls-1 {
        opacity: 0.29;
      }

      .cls-2 {
        fill: url(#linear-gradient);
      }

      .cls-3 {
        fill: url(#linear-gradient-2);
      }

      .cls-4 {
        fill: url(#linear-gradient-3);
      }

      .cls-5 {
        fill: #a06600;
      }

      .cls-6 {
        opacity: 0.44;
      }

      .cls-7 {
        fill: #fbae17;
      }
    </style>
    <linearGradient id="linear-gradient" x1="165.21" y1="238.05" x2="165.21" y2="74.38" gradientUnits="userSpaceOnUse">
      <stop offset="0" stop-color="#685735"/>
      <stop offset="0.08" stop-color="#856f45"/>
      <stop offset="0.15" stop-color="#c2a368"/>
      <stop offset="0.21" stop-color="#dfcf82"/>
      <stop offset="0.27" stop-color="#f3e585"/>
      <stop offset="0.34" stop-color="#f7e79b"/>
      <stop offset="0.41" stop-color="#aa9254"/>
      <stop offset="0.48" stop-color="#c2a66a"/>
      <stop offset="0.56" stop-color="#e0cc79"/>
      <stop offset="0.65" stop-color="#ae935d"/>
      <stop offset="0.72" stop-color="#a38656"/>
      <stop offset="0.8" stop-color="#f6f197"/>
      <stop offset="0.88" stop-color="#aa8b58"/>
      <stop offset="0.94" stop-color="#826c44"/>
      <stop offset="1" stop-color="#4e4024"/>
    </linearGradient>
    <linearGradient id="linear-gradient-2" x1="145.83" y1="74.38" x2="145.83" y2="71.96" xlink:href="#linear-gradient"/>
    <linearGradient id="linear-gradient-3" x1="466.62" y1="266.09" x2="466.62" y2="0" xlink:href="#linear-gradient"/>
  </defs>
  <title>Asset 2</title>
  <g id="Layer_2" data-name="Layer 2">
    <g id="Object">
      <g class="cls-1">
        <polygon class="cls-2" points="132.74 238.05 197.67 238.05 197.67 104.1 199.52 104.1 199.52 100.27 195.49 100.27 195.49 95.37 163.54 95.37 163.54 87.93 151.34 87.93 149.51 83.06 146.5 83.06 146.5 74.38 145.82 74.38 145.15 74.38 145.15 83.06 139.56 83.06 139.56 87.93 139.56 93.53 139.56 95.37 134.92 95.37 134.92 100.27 130.89 100.27 130.89 104.1 132.74 104.1 132.74 238.05"/>
        <path class="cls-3" d="M147,73.17a1.21,1.21,0,1,0-1.2,1.21A1.21,1.21,0,0,0,147,73.17Z"/>
        <polygon class="cls-4" points="735.39 245.89 735.39 65.81 655.44 49.22 664.2 245.89 429.6 245.89 429.6 134.63 425.28 134.63 425.28 68.05 414.14 68.05 414.14 50.22 410.15 50.22 410.15 24.06 388.21 24.06 388.21 4.84 386.26 4.84 386.26 24.06 381.96 24.06 381.96 0 380.01 0 380.01 24.06 366.14 24.06 366.14 68.05 358.97 68.05 358.97 134.63 352.83 134.63 352.83 245.89 290.45 245.89 290.45 97.79 291.52 97.79 291.52 96.08 283.85 96.08 283.85 85.78 284.84 85.78 284.84 84.14 277.79 84.14 277.79 78.22 278.42 78.22 278.42 76.95 275.39 76.95 275.39 71.36 272.49 71.36 272.04 71.36 272.04 51.41 271.73 51.41 271.33 51.41 270.93 51.41 270.93 71.36 269.57 71.36 269.57 60.24 269.26 60.24 268.86 60.24 268.46 60.24 268.46 71.36 265.11 71.36 265.11 76.95 261.61 76.95 261.61 78.22 262.71 78.22 262.71 84.14 255.66 84.14 255.66 85.78 256.65 85.78 256.65 96.08 248.97 96.08 248.97 97.79 250.05 97.79 250.05 245.89 41.99 245.89 41.99 266.09 891.25 266.09 891.25 245.89 735.39 245.89"/>
      </g>
      <path class="cls-5" d="M876,264.07V245.89H850.42l-9.68-71.57h-1.45v-8.6h-5.08v8.6H833V171.1h-3.56v3.22H822v-7.5h-2v-5.21H805.51v5.21h-2v7.5h-2v43H788.57V108.24h-4.23V84.32H783v23.92h-3.22V75.05h-1.35v33.19h-2.8v-18h-1.35v18h-25v77.41H721.49v50.16H695.55l-20.6-38a53.57,53.57,0,0,0,9.73-7.2l4.23,4.51a4.25,4.25,0,1,0,.38-.3L685,190.31c.36-.34.72-.68,1.07-1a53,53,0,0,0,10.62-15.11l4.71,2.17a4.16,4.16,0,0,0-.13,1.06,4.3,4.3,0,1,0,.27-1.52l-4.65-2.15a53,53,0,0,0,4.75-20.15l5.06.17a4.38,4.38,0,1,0,0-.48l-5.07-.17c0-.49,0-1,0-1.49a53.17,53.17,0,0,0-3.17-18.19l4.23-1.56a4.33,4.33,0,1,0-.35-1.72,4.11,4.11,0,0,0,.19,1.27L698.37,133a53,53,0,0,0-10.9-17.61l3.31-3.11a4.26,4.26,0,0,0,3,1.2,4.33,4.33,0,1,0-3.31-1.55L687.14,115c-.34-.36-.69-.72-1-1.07a53.21,53.21,0,0,0-17.2-11.55L670.72,98a4.32,4.32,0,1,0-.45-.17l-1.82,4.42a53.21,53.21,0,0,0-18.05-3.84l.19-6.06h.14a4.3,4.3,0,1,0-.61,0l-.2,6.08-1.49,0a53.21,53.21,0,0,0-17.5,2.93l-1.74-5a4.31,4.31,0,1,0-1.64.33,4.28,4.28,0,0,0,1.19-.17l1.74,5a52.93,52.93,0,0,0-18.31,11.15L609,109.19a4.36,4.36,0,1,0-.34.33l3.15,3.37-1.07,1A53.26,53.26,0,0,0,600.13,129l-4-1.85a4.25,4.25,0,0,0,.23-1.38,4.31,4.31,0,1,0-.4,1.82l4,1.85a53,53,0,0,0-4.75,20.15l-5.15-.17a4.3,4.3,0,1,0,0,.48l5.15.17c0,.5,0,1,0,1.49a53.41,53.41,0,0,0,3.17,18.19l-4.23,1.56a4.31,4.31,0,1,0,.36,1.72,4.43,4.43,0,0,0-.19-1.27l4.23-1.56a53.09,53.09,0,0,0,10.89,17.62l-3.31,3.1a4.3,4.3,0,1,0,.33.35l3.31-3.1c.34.36.69.71,1,1.06a53.6,53.6,0,0,0,11.16,8.57l-20.6,38H584.62V210.07h-6.8V161.18h2.64v-1.06H522v1.06h2.64v24.65h-5.73l-5.46,28.1V121.79h-2.4V88.42H499V75.71h-6.46V65h-2.26V46.75h-.59V65h-2.27V75.71H481V88.42H469v33.37h-2.49v60.58H447.9v53.44H386.26V132.49h5v-1.63h-5V128H380v-4.78H328.63V128h-6.28v2.91h-5v1.63h5v64.32H314V184.74H262.13v14.73h-11.3v27.45H232.54v-89.7h-6.1v-6.1h-4.83V115h-1v16.13h-2.29v-20.2h-1v20.2h-2.81v6.1H213v89.7H175.12v-52.6h1.77v-3.56H165.21v-9.65h-5.59v9.65h-5.09v-9.65h-5.08v9.65h-9.88v-9.65H109.31v9.65h-7.07v3.56h4v19.82H95.08v44.72H79.73V226.92H62.65v26H42v11.11H11.52v31.85H903.2V264.07Zm-201.72-67.5-7.14-13.15a37.37,37.37,0,0,0,6.36-4.73l10.22,10.9A52.45,52.45,0,0,1,674.26,196.57Zm-26.71-42.2a2.36,2.36,0,0,0,.54.12L647,187.76a36,36,0,0,1-12.11-2.59ZM634.46,185a36.4,36.4,0,0,1-3.55-1.73L646.78,154l.32.19Zm14.11-30.49a2.8,2.8,0,0,0,.59-.09l11.07,31.4a36,36,0,0,1-11.8,2h-.94Zm1-.25a2.46,2.46,0,0,0,.45-.25l15.87,29.26a35.72,35.72,0,0,1-5.26,2.39Zm2.67,1.82L673,178.16a36.47,36.47,0,0,1-6.2,4.62Zm-.91-1.67-.6-1.1A1.81,1.81,0,0,0,651,153l30.22,14a36.39,36.39,0,0,1-7.84,10.84Zm-.22-1.8a2.44,2.44,0,0,0,.15-.66L684.59,153a35.82,35.82,0,0,1-3.21,13.53Zm.17-1.14a3.19,3.19,0,0,0-.1-.63l31.24-11.51a36,36,0,0,1,2.15,12.28c0,.31,0,.63,0,.94Zm-.27-1.09a2.61,2.61,0,0,0-.36-.57L675,127a36.35,36.35,0,0,1,7.31,11.83Zm-.68-.93a3,3,0,0,0-.63-.43l12.65-30.79a36.23,36.23,0,0,1,12.26,8.47Zm-1.08-.61a2.36,2.36,0,0,0-.54-.12l1.08-33.27A35.85,35.85,0,0,1,662,118Zm-1-.13a2.9,2.9,0,0,0-.59.09l-11.07-31.4a36.09,36.09,0,0,1,11.81-2h.93Zm-1,.25a3,3,0,0,0-.62.37L623.87,125a36.21,36.21,0,0,1,12.3-7.49Zm-1,.7a2.73,2.73,0,0,0-.37.52l-30.23-13.95a36.17,36.17,0,0,1,7.85-10.85Zm-.58.95a3.63,3.63,0,0,0-.15.67l-33.27-1.08a35.87,35.87,0,0,1,3.2-13.54Zm-.17,1.15a3.44,3.44,0,0,0,.1.63l-31.24,11.5a36,36,0,0,1-2.14-12.28c0-.31,0-.62,0-.93Zm.27,1.08a3.24,3.24,0,0,0,.28.47l-.2.37-24,22.49a36.21,36.21,0,0,1-7.32-11.83Zm-.65,2.17-15.07,27.78a36.19,36.19,0,0,1-7.87-6.27Zm-14.58,28.89a36.64,36.64,0,0,0,3.62,1.76l-5.68,13.84a51.37,51.37,0,0,1-5.07-2.45Zm4.07,1.94A36.55,36.55,0,0,0,647,188.48l-.49,14.92A51.58,51.58,0,0,1,629,199.67Zm12.84,2.67h1a36.7,36.7,0,0,0,12-2l5,14.1a51.9,51.9,0,0,1-17,2.85l-1.45,0Zm13.45-2.17a36.17,36.17,0,0,0,5.37-2.44L673.42,197a52,52,0,0,1-7.53,3.4Zm24.16,1.92c-.34.35-.69.68-1,1l-10.22-10.9a37.08,37.08,0,0,0,8-11.07l13.58,6.27A51.62,51.62,0,0,1,685.08,188.25Zm10.54-15.13L682,166.85A36.68,36.68,0,0,0,685.31,153l14.92.48A51.7,51.7,0,0,1,695.62,173.12Zm4.64-21.52c0,.48,0,1,0,1.44l-14.91-.48c0-.32,0-.64,0-1a36.92,36.92,0,0,0-2.19-12.53l14-5.16A51.75,51.75,0,0,1,700.26,151.6Zm-13.84-35.27A51.46,51.46,0,0,1,697,133.46l-14,5.16a36.85,36.85,0,0,0-7.47-12.07ZM685.08,115c.34.34.68.68,1,1L675.18,126.2a37,37,0,0,0-12.51-8.65l5.68-13.83A51.6,51.6,0,0,1,685.08,115ZM650.35,99.8a51.63,51.63,0,0,1,17.56,3.73l-5.68,13.84a36.65,36.65,0,0,0-12.36-2.65Zm-1.92,0,1.44,0-.48,14.92h-1a36.71,36.71,0,0,0-12,2l-5-14.1A51.92,51.92,0,0,1,648.43,99.76Zm-17.47,3,5,14.1a36.77,36.77,0,0,0-12.55,7.65l-10.22-10.91A51.35,51.35,0,0,1,631,102.77ZM611.77,115l1-1L623,124.84a37.28,37.28,0,0,0-8,11.07l-13.58-6.26A51.72,51.72,0,0,1,611.77,115Zm-10.53,15.13,13.58,6.27a36.3,36.3,0,0,0-3.27,13.81l-14.93-.48A51.52,51.52,0,0,1,601.24,130.08Zm-4.65,21.52c0-.48,0-1,0-1.44l14.92.48c0,.32,0,.64,0,1a36.88,36.88,0,0,0,2.19,12.53l-14,5.16A52,52,0,0,1,596.59,151.6Zm13.85,35.27a51.54,51.54,0,0,1-10.6-17.12l14-5.17a37,37,0,0,0,7.47,12.07Zm1.33,1.38c-.34-.34-.67-.68-1-1L621.67,177a37.09,37.09,0,0,0,8.06,6.42l-7.13,13.15A52.35,52.35,0,0,1,611.77,188.25Zm11,10.06a55.35,55.35,0,0,0,5.21,2.51l-1.82,4.43a4.32,4.32,0,1,0,.45.17L628.4,201a52.74,52.74,0,0,0,18.06,3.84l-.15,4.54a4.27,4.27,0,1,0,.48,0l.15-4.53,1.49,0A53.19,53.19,0,0,0,665.92,202l1.55,4.41a4.32,4.32,0,1,0,1.84-.41,4.5,4.5,0,0,0-1.39.23l-1.55-4.38a53.75,53.75,0,0,0,7.74-3.49l20.34,37.5H602.4Z"/>
      <g class="cls-6">
        <path class="cls-7" d="M774.54,131a1,1,0,1,0-1,1.21A1.13,1.13,0,0,0,774.54,131Z"/>
        <polygon class="cls-7" points="885.1 277.91 878.81 235.81 865.93 235.81 865.93 200.87 867.53 200.87 867.53 197.71 861.28 197.71 861.28 184.1 860.51 184.1 860.51 197.71 856.19 197.71 856.19 186.56 855.43 186.56 855.43 197.71 829.39 197.71 829.39 200.87 831.17 200.87 831.17 271.76 801.44 271.76 801.44 240.01 784.51 240.01 784.51 161.98 786.06 161.98 786.06 158.15 782.68 158.15 782.68 153.25 778.79 153.25 778.79 151.41 778.79 145.8 778.79 140.94 774.09 140.94 774.09 132.25 773.53 132.25 772.96 132.25 772.96 140.94 770.43 140.94 768.9 145.8 758.66 145.8 758.66 153.25 731.84 153.25 731.84 158.15 728.46 158.15 728.46 161.98 730.01 161.98 730.01 212.75 707.57 212.75 707.57 262.63 682.67 251.6 682.67 203.18 686.69 203.18 686.69 199.62 679.62 199.62 679.62 189.97 649.36 189.97 649.36 199.62 639.48 199.62 639.48 189.97 634.39 189.97 634.39 199.62 629.31 199.62 629.31 189.97 623.72 189.97 623.72 199.62 612.03 199.62 612.03 203.18 613.81 203.18 613.81 270.29 602.46 270.29 602.46 269.58 600.41 269.58 600.41 250.46 602.46 250.46 602.46 248.93 600.41 248.93 600.41 229.8 602.46 229.8 602.46 228.27 600.41 228.27 600.41 209.15 602.46 209.15 602.46 207.61 600.41 207.61 600.41 188.49 602.46 188.49 602.46 186.95 600.41 186.95 600.41 167.83 602.46 167.83 602.46 166.29 600.41 166.29 600.41 146.5 603.93 146.5 603.93 144.96 605.72 144.96 605.72 140.77 572.29 140.77 572.29 136.1 573.38 136.1 573.38 134.75 555.18 134.75 555.18 136.1 556.27 136.1 556.27 140.77 547.99 140.77 547.99 144.96 549.78 144.96 549.78 146.5 553.3 146.5 553.3 166.29 551.24 166.29 551.24 167.83 553.3 167.83 553.3 186.95 551.24 186.95 551.24 188.49 553.3 188.49 553.3 207.61 551.24 207.61 551.24 209.15 553.3 209.15 553.3 228.27 551.24 228.27 551.24 229.8 553.3 229.8 553.3 248.93 551.24 248.93 551.24 250.46 553.3 250.46 553.3 269.58 551.24 269.58 551.24 271.12 553.3 271.12 553.3 286.75 541.89 286.75 541.89 226.36 495.98 226.36 495.98 270.29 488.53 270.29 488.53 133.44 483.01 133.44 483.01 136.96 472.84 139.45 472.84 137.16 467.32 137.16 467.32 140.8 457.15 143.28 457.15 140.66 451.63 140.66 451.63 144.63 441.46 147.12 441.46 144.96 435.94 144.96 435.94 148.47 425.77 150.96 425.77 149.1 420.25 149.1 420.25 283.49 412.5 283.49 412.5 211.84 383.76 211.84 383.76 255.9 354.31 255.9 354.31 218.33 350.68 218.33 350.68 205.99 352.83 205.99 352.83 204.75 343.3 204.75 343.3 200.87 342.28 200.87 342.28 204.75 339.23 204.75 339.23 184.83 338.47 184.83 338.47 204.75 334.5 204.75 334.5 205.99 336.84 205.99 336.84 218.33 317.4 218.33 317.4 246.99 298.47 246.99 288.58 283.49 268.75 283.49 268.75 164.31 242.49 164.31 242.49 160.04 243.99 160.04 243.99 158.55 224.1 158.55 224.1 160.04 225.66 160.04 225.66 164.31 225.66 171.18 225.66 252.8 213.28 252.8 213.28 221.96 217.68 221.96 217.68 219.17 186.52 219.17 186.52 200.54 180.58 200.54 180.58 196.71 167.31 196.71 167.31 200.54 156.52 200.54 156.52 267.06 121.11 267.06 121.11 217.72 91.29 217.72 91.29 256.69 65.41 256.69 65.41 281.63 46.75 281.63 46.75 250.28 22.21 250.28 22.21 277 0 277 0 295.92 22.21 295.92 29.72 295.92 41.99 295.92 46.75 295.92 65.41 295.92 91.29 295.92 99.98 295.92 104.64 295.92 121.11 295.92 156.52 295.92 167.31 295.92 180.58 295.92 186.52 295.92 209.76 295.92 213.28 295.92 225.66 295.92 246.42 295.92 256.65 295.92 268.75 295.92 317.4 295.92 328.63 295.92 347.59 295.92 354.31 295.92 384.27 295.92 392.32 295.92 420.25 295.92 423.01 295.92 425.77 295.92 435.94 295.92 441.46 295.92 451.63 295.92 456.24 295.92 457.15 295.92 467.32 295.92 472.84 295.92 481.59 295.92 483.01 295.92 485.77 295.92 488.53 295.92 495.98 295.92 533.92 295.92 539.35 295.92 541.89 295.92 553.3 295.92 573.38 295.92 591.77 295.92 600.41 295.92 613.81 295.92 647.1 295.92 682.3 295.92 682.67 295.92 707.57 295.92 721.49 295.92 730.01 295.92 735.39 295.92 777.05 295.92 784.51 295.92 793.43 295.92 801.44 295.92 831.17 295.92 853.28 295.92 857.8 295.92 865.93 295.92 915.4 295.92 915.4 277.91 885.1 277.91"/>
      </g>
    </g>
  </g>
</svg>
